<?xml version="1.0" encoding="iso-8859-1"?>
<!-- Generator: Adobe Illustrator 18.0.0, SVG Export Plug-In . SVG Version: 6.00 Build 0)  -->
<!DOCTYPE svg PUBLIC "-//W3C//DTD SVG 1.1//EN" "http://www.w3.org/Graphics/SVG/1.1/DTD/svg11.dtd">
<svg version="1.1" id="Capa_1" xmlns="http://www.w3.org/2000/svg" xmlns:xlink="http://www.w3.org/1999/xlink" x="0px" y="0px"
	 viewBox="0 0 60 60" style="enable-background:new 0 0 60 60;" xml:space="preserve">
<g>
	<path d="M55.783,8H4.217C1.892,8,0,9.892,0,12.217v35.566C0,50.108,1.892,52,4.217,52h51.566C58.108,52,60,50.108,60,47.783V12.217
		C60,9.892,58.108,8,55.783,8z M58,47.783C58,49.005,57.006,50,55.783,50H4.217C2.994,50,2,49.005,2,47.783V12.217
		C2,10.995,2.994,10,4.217,10h51.566C57.006,10,58,10.995,58,12.217V47.783z"/>
	<path d="M5,45h11v-8H5V45z M7,39h7v4H7V39z"/>
	<path d="M18,45h11v-8H18V45z M20,39h7v4h-7V39z"/>
	<path d="M31,45h11v-8H31V45z M33,39h7v4h-7V39z"/>
	<path d="M44,45h11v-8H44V45z M46,39h7v4h-7V39z"/>
	<path d="M7.255,28h6h1.49h6C21.988,28,23,26.988,23,25.745v-8v-1.49C23,15.012,21.988,14,20.745,14h-7.49h-6
		C6.012,14,5,15.012,5,16.255v9.49C5,26.988,6.012,28,7.255,28z M11,22H7v-2h4V22z M7,25.745V24h4v1.745
		c0,0.087,0.016,0.17,0.026,0.255H7.255C7.114,26,7,25.886,7,25.745z M21,22h-4v-1.745C17,20.114,17.114,20,17.255,20h3.49
		c0.087,0,0.17-0.016,0.255-0.026V22z M20.745,26h-3.771C16.984,25.915,17,25.832,17,25.745V24h4v1.745
		C21,25.886,20.886,26,20.745,26z M20.745,16C20.886,16,21,16.114,21,16.255v1.49C21,17.886,20.886,18,20.745,18h-3.49
		C16.012,18,15,19.012,15,20.255v5.49C15,25.886,14.886,26,14.745,26h-1.49C13.114,26,13,25.886,13,25.745v-9.49
		C13,16.114,13.114,16,13.255,16H20.745z M7.255,16h3.771C11.016,16.085,11,16.168,11,16.255V18H7v-1.745
		C7,16.114,7.114,16,7.255,16z"/>
	<path d="M32,16h9c0.553,0,1-0.448,1-1s-0.447-1-1-1h-9c-0.553,0-1,0.448-1,1S31.447,16,32,16z"/>
	<path d="M54,14h-9c-0.553,0-1,0.448-1,1s0.447,1,1,1h9c0.553,0,1-0.448,1-1S54.553,14,54,14z"/>
	<path d="M32,21h1c0.553,0,1-0.448,1-1s-0.447-1-1-1h-1c-0.553,0-1,0.448-1,1S31.447,21,32,21z"/>
	<path d="M37,19c-0.553,0-1,0.448-1,1s0.447,1,1,1h2c0.553,0,1-0.448,1-1s-0.447-1-1-1H37z"/>
	<path d="M45,20c0-0.552-0.447-1-1-1h-1c-0.553,0-1,0.448-1,1s0.447,1,1,1h1C44.553,21,45,20.552,45,20z"/>
	<path d="M50,21c0.553,0,1-0.448,1-1s-0.447-1-1-1h-2c-0.553,0-1,0.448-1,1s0.447,1,1,1H50z"/>
	<path d="M53.29,19.29C53.109,19.48,53,19.74,53,20c0,0.26,0.109,0.52,0.29,0.71C53.479,20.89,53.729,21,54,21
		c0.26,0,0.52-0.11,0.71-0.29C54.89,20.52,55,20.26,55,20c0-0.26-0.11-0.52-0.29-0.71C54.33,18.92,53.66,18.92,53.29,19.29z"/>
</g>
<g>
</g>
<g>
</g>
<g>
</g>
<g>
</g>
<g>
</g>
<g>
</g>
<g>
</g>
<g>
</g>
<g>
</g>
<g>
</g>
<g>
</g>
<g>
</g>
<g>
</g>
<g>
</g>
<g>
</g>
</svg>
