<?xml version="1.0" encoding="iso-8859-1"?>
<!-- Generator: Adobe Illustrator 19.0.0, SVG Export Plug-In . SVG Version: 6.00 Build 0)  -->
<svg version="1.1" id="Capa_1" xmlns="http://www.w3.org/2000/svg" xmlns:xlink="http://www.w3.org/1999/xlink" x="0px" y="0px"
	 viewBox="0 0 489.9 489.9" style="enable-background:new 0 0 489.9 489.9;" xml:space="preserve">
<g>
	<g>
		<g>
			<path d="M475.65,63.5v-7.7c0-30.8-25-55.8-55.8-55.8s-55.8,25-55.8,55.8v7.7H475.65z"/>
		</g>
		<g>
			<path d="M345.55,439.5H39.25c-13.9,0-25.2,11.3-25.2,25.2l0,0c0,13.9,11.3,25.2,25.2,25.2h340.9L345.55,439.5z"/>
		</g>
		<g>
			<g>
				<path d="M331.45,137.3H39.25c-13.9,0-25.2,11.3-25.2,25.2l0,0c0,13.9,11.3,25.2,25.2,25.2h292.2V137.3z"/>
			</g>
			<g>
				<path d="M331.45,238H39.25c-13.9,0-25.2,11.3-25.2,25.2l0,0c0,13.9,11.3,25.2,25.2,25.2h292.2V238z"/>
			</g>
			<g>
				<path d="M331.45,338.7H39.25c-13.9,0-25.2,11.3-25.2,25.2l0,0c0,13.9,11.3,25.2,25.2,25.2h292.2V338.7z"/>
			</g>
		</g>
		<g>
			<path d="M364.15,96.2v312.9l50.8,73.4c2.4,3.5,7.6,3.5,10.1,0l50.8-73.4V96.2H364.15z"/>
		</g>
	</g>
</g>
<g>
</g>
<g>
</g>
<g>
</g>
<g>
</g>
<g>
</g>
<g>
</g>
<g>
</g>
<g>
</g>
<g>
</g>
<g>
</g>
<g>
</g>
<g>
</g>
<g>
</g>
<g>
</g>
<g>
</g>
</svg>
