<?xml version="1.0" encoding="iso-8859-1"?>
<!-- Generator: Adobe Illustrator 18.0.0, SVG Export Plug-In . SVG Version: 6.00 Build 0)  -->
<!DOCTYPE svg PUBLIC "-//W3C//DTD SVG 1.1//EN" "http://www.w3.org/Graphics/SVG/1.1/DTD/svg11.dtd">
<svg version="1.1" id="Capa_1" xmlns="http://www.w3.org/2000/svg" xmlns:xlink="http://www.w3.org/1999/xlink" x="0px" y="0px"
	 viewBox="0 0 494.999 494.999" style="enable-background:new 0 0 494.999 494.999;" xml:space="preserve">
<g>
	<path d="M105.031,119.481h284.938c32.988,0,59.742-26.743,59.742-59.741C449.71,26.743,422.957,0,389.968,0H105.031
		C72.043,0,45.289,26.743,45.289,59.74C45.289,92.738,72.043,119.481,105.031,119.481z"/>
	<path d="M389.968,187.757H105.031c-32.987,0-59.742,26.747-59.742,59.744c0,32.994,26.755,59.741,59.742,59.741h284.938
		c32.988,0,59.742-26.747,59.742-59.741C449.71,214.504,422.957,187.757,389.968,187.757z"/>
	<path d="M389.968,375.518H105.031c-32.987,0-59.742,26.747-59.742,59.741c0,32.997,26.755,59.74,59.742,59.74h284.938
		c32.988,0,59.742-26.743,59.742-59.74C449.71,402.265,422.957,375.518,389.968,375.518z"/>
</g>
<g>
</g>
<g>
</g>
<g>
</g>
<g>
</g>
<g>
</g>
<g>
</g>
<g>
</g>
<g>
</g>
<g>
</g>
<g>
</g>
<g>
</g>
<g>
</g>
<g>
</g>
<g>
</g>
<g>
</g>
</svg>
